<svg version="1.1" id="Layer_1" xmlns="http://www.w3.org/2000/svg" xmlns:xlink="http://www.w3.org/1999/xlink" x="0px" y="0px"
	 width="100%" viewBox="0 0 2151 1536" enable-background="new 0 0 2151 1536" xml:space="preserve">
<path fill="#000000" opacity="1.000000" stroke="none" 
	d="
M1200.000000,1537.000000 
	C800.000000,1537.000000 400.500000,1537.000000 1.000000,1537.000000 
	C1.000000,1025.000000 1.000000,513.000000 1.000000,1.000000 
	C718.000000,1.000000 1435.000000,1.000000 2152.000000,1.000000 
	C2152.000000,513.000000 2152.000000,1025.000000 2152.000000,1537.000000 
	C1834.833374,1537.000000 1517.666626,1537.000000 1200.000000,1537.000000 
M720.717896,680.791382 
	C727.117065,689.305908 733.504700,697.829041 739.917664,706.333130 
	C755.540527,727.050415 771.203613,747.737427 786.795105,768.478210 
	C797.895081,783.244202 808.893372,798.086670 819.958130,812.879150 
	C833.991760,831.640686 848.042603,850.389343 862.094849,869.136963 
	C867.379456,876.187378 872.533020,883.344116 878.040344,890.216736 
	C881.790283,894.896240 882.208557,897.355713 878.615234,902.152527 
	C861.863403,924.514954 845.114502,946.879822 828.302002,969.196777 
	C805.069336,1000.035767 781.704285,1030.775391 758.536194,1061.662720 
	C732.474792,1096.407104 706.593628,1131.286865 680.584595,1166.070679 
	C669.820740,1180.465942 658.885498,1194.733154 648.160645,1209.157104 
	C647.097656,1210.586792 646.962524,1212.706299 646.396790,1214.505615 
	C647.764343,1214.847046 649.131836,1215.486938 650.499512,1215.487671 
	C805.986877,1215.563110 961.474304,1215.574219 1116.961548,1215.712036 
	C1121.124146,1215.715698 1123.761230,1214.339233 1126.144775,1211.100220 
	C1138.666504,1194.085083 1151.306763,1177.156860 1163.953735,1160.234131 
	C1193.536133,1120.649902 1223.106445,1081.056641 1252.754883,1041.522095 
	C1287.114014,995.706116 1321.558960,949.954712 1355.930786,904.148315 
	C1357.437866,902.139771 1358.587769,899.863159 1360.454590,896.811340 
	C1356.753174,896.811340 1354.279297,896.810791 1351.805420,896.811462 
	C1239.480957,896.840515 1127.156494,896.872681 1014.832031,896.895325 
	C1000.500427,896.898193 986.168457,896.896423 971.837585,896.784058 
	C969.497375,896.765747 967.161804,896.159424 962.912292,895.551331 
	C1037.086060,776.864990 1110.391846,659.567383 1184.047852,541.709595 
	C1185.460693,543.526794 1186.461060,544.444641 1187.011230,545.580627 
	C1190.774292,553.350525 1194.869995,561.000061 1197.991943,569.025391 
	C1200.081665,574.397278 1202.960571,576.249084 1208.723389,576.229309 
	C1257.716309,576.061401 1306.710205,576.205811 1355.703857,576.233826 
	C1357.291870,576.234741 1358.880005,575.991699 1361.000122,575.819092 
	C1360.119141,573.568420 1359.595825,571.851624 1358.805664,570.267944 
	C1331.096680,514.736084 1303.399780,459.198090 1275.543579,403.740082 
	C1273.791992,400.253113 1273.936646,397.605835 1275.937378,394.519257 
	C1280.634644,387.273010 1285.205444,379.944427 1289.790771,372.626221 
	C1306.918701,345.289886 1324.085693,317.977844 1341.122925,290.585144 
	C1347.506592,280.321411 1353.575562,269.861938 1360.232544,258.749695 
	C1357.611694,258.533508 1355.846680,258.276031 1354.079468,258.259979 
	C1340.914795,258.140259 1327.749878,257.990814 1314.584961,257.993530 
	C1182.428223,258.020935 1050.271362,258.074188 918.114624,258.126007 
	C907.615601,258.130127 897.113342,258.051208 886.620239,258.313812 
	C884.578064,258.364899 881.835449,259.240662 880.663208,260.722656 
	C870.339172,273.773529 860.183594,286.962219 850.193237,300.271606 
	C818.114319,343.007812 786.125000,385.811310 754.106018,428.592529 
	C741.138611,445.918579 728.204041,463.269287 715.218445,480.581726 
	C699.539185,501.485382 683.781921,522.330688 668.137756,543.260498 
	C660.673767,553.246277 653.480225,563.434753 645.974548,573.388428 
	C643.796326,576.277161 644.532166,578.500793 646.350525,580.951782 
	C651.800110,588.297363 657.203613,595.677307 662.673279,603.007874 
	C681.876892,628.744873 701.100647,654.466736 720.717896,680.791382 
M1440.909912,791.345642 
	C1414.999878,825.843018 1389.089844,860.340393 1362.554810,895.669739 
	C1366.010986,896.140381 1368.259766,896.702637 1370.511108,896.713318 
	C1391.164917,896.811646 1411.824585,896.562561 1432.470459,896.993408 
	C1438.918579,897.128052 1442.562500,894.892639 1445.365356,889.264771 
	C1469.640381,840.523071 1494.114136,791.880432 1518.477661,743.182800 
	C1541.140991,697.883667 1563.761353,652.562927 1586.335083,607.219116 
	C1588.236206,603.400391 1589.638428,599.333191 1591.272461,595.381409 
	C1590.702881,595.053406 1590.133301,594.725342 1589.563721,594.397339 
	C1538.762329,658.794739 1491.082886,725.571960 1440.909912,791.345642 
z"/>
<path fill="#FEFEFE" opacity="1.000000" stroke="none" 
	d="
M720.517334,680.492920 
	C701.100647,654.466736 681.876892,628.744873 662.673279,603.007874 
	C657.203613,595.677307 651.800110,588.297363 646.350525,580.951782 
	C644.532166,578.500793 643.796326,576.277161 645.974548,573.388428 
	C653.480225,563.434753 660.673767,553.246277 668.137756,543.260498 
	C683.781921,522.330688 699.539185,501.485382 715.218445,480.581726 
	C728.204041,463.269287 741.138611,445.918579 754.106018,428.592529 
	C786.125000,385.811310 818.114319,343.007812 850.193237,300.271606 
	C860.183594,286.962219 870.339172,273.773529 880.663208,260.722656 
	C881.835449,259.240662 884.578064,258.364899 886.620239,258.313812 
	C897.113342,258.051208 907.615601,258.130127 918.114624,258.126007 
	C1050.271362,258.074188 1182.428223,258.020935 1314.584961,257.993530 
	C1327.749878,257.990814 1340.914795,258.140259 1354.079468,258.259979 
	C1355.846680,258.276031 1357.611694,258.533508 1360.232544,258.749695 
	C1353.575562,269.861938 1347.506592,280.321411 1341.122925,290.585144 
	C1324.085693,317.977844 1306.918701,345.289886 1289.790771,372.626221 
	C1285.205444,379.944427 1280.634644,387.273010 1275.937378,394.519257 
	C1273.936646,397.605835 1273.791992,400.253113 1275.543579,403.740082 
	C1303.399780,459.198090 1331.096680,514.736084 1358.805664,570.267944 
	C1359.595825,571.851624 1360.119141,573.568420 1361.000122,575.819092 
	C1358.880005,575.991699 1357.291870,576.234741 1355.703857,576.233826 
	C1306.710205,576.205811 1257.716309,576.061401 1208.723389,576.229309 
	C1202.960571,576.249084 1200.081665,574.397278 1197.991943,569.025391 
	C1194.869995,561.000061 1190.774292,553.350525 1187.011230,545.580627 
	C1186.461060,544.444641 1185.460693,543.526794 1184.047852,541.709595 
	C1110.391846,659.567383 1037.086060,776.864990 962.912292,895.551331 
	C967.161804,896.159424 969.497375,896.765747 971.837585,896.784058 
	C986.168457,896.896423 1000.500427,896.898193 1014.832031,896.895325 
	C1127.156494,896.872681 1239.480957,896.840515 1351.805420,896.811462 
	C1354.279297,896.810791 1356.753174,896.811340 1360.454590,896.811340 
	C1358.587769,899.863159 1357.437866,902.139771 1355.930786,904.148315 
	C1321.558960,949.954712 1287.114014,995.706116 1252.754883,1041.522095 
	C1223.106445,1081.056641 1193.536133,1120.649902 1163.953735,1160.234131 
	C1151.306763,1177.156860 1138.666504,1194.085083 1126.144775,1211.100220 
	C1123.761230,1214.339233 1121.124146,1215.715698 1116.961548,1215.712036 
	C961.474304,1215.574219 805.986877,1215.563110 650.499512,1215.487671 
	C649.131836,1215.486938 647.764343,1214.847046 646.396790,1214.505615 
	C646.962524,1212.706299 647.097656,1210.586792 648.160645,1209.157104 
	C658.885498,1194.733154 669.820740,1180.465942 680.584595,1166.070679 
	C706.593628,1131.286865 732.474792,1096.407104 758.536194,1061.662720 
	C781.704285,1030.775391 805.069336,1000.035767 828.302002,969.196777 
	C845.114502,946.879822 861.863403,924.514954 878.615234,902.152527 
	C882.208557,897.355713 881.790283,894.896240 878.040344,890.216736 
	C872.533020,883.344116 867.379456,876.187378 862.094849,869.136963 
	C848.042603,850.389343 833.991760,831.640686 819.958130,812.879150 
	C808.893372,798.086670 797.895081,783.244202 786.795105,768.478210 
	C771.203613,747.737427 755.540527,727.050415 739.917664,706.333130 
	C733.504700,697.829041 727.117065,689.305908 720.517334,680.492920 
z"/>
<path fill="#FBFBFB" opacity="1.000000" stroke="none" 
	d="
M1441.114380,791.052856 
	C1491.082886,725.571960 1538.762329,658.794739 1589.563721,594.397339 
	C1590.133301,594.725342 1590.702881,595.053406 1591.272461,595.381409 
	C1589.638428,599.333191 1588.236206,603.400391 1586.335083,607.219116 
	C1563.761353,652.562927 1541.140991,697.883667 1518.477661,743.182800 
	C1494.114136,791.880432 1469.640381,840.523071 1445.365356,889.264771 
	C1442.562500,894.892639 1438.918579,897.128052 1432.470459,896.993408 
	C1411.824585,896.562561 1391.164917,896.811646 1370.511108,896.713318 
	C1368.259766,896.702637 1366.010986,896.140381 1362.554810,895.669739 
	C1389.089844,860.340393 1414.999878,825.843018 1441.114380,791.052856 
z"/>
</svg>